<svg width="24" height="25" viewBox="0 0 24 25" fill="none" xmlns="http://www.w3.org/2000/svg">
<path d="M12 0.73999C5.5051 0.73999 0.23999 6.0051 0.23999 12.5C0.23999 18.9949 5.5051 24.26 12 24.26C18.4949 24.26 23.76 18.9949 23.76 12.5C23.76 6.0051 18.4949 0.73999 12 0.73999ZM17.4509 8.73774C17.274 10.5973 16.5082 15.1099 16.1185 17.1926C15.9536 18.0739 15.629 18.3694 15.3148 18.3982C14.632 18.4611 14.1133 17.947 13.4518 17.5134C12.4168 16.8349 11.8321 16.4125 10.8274 15.7504C9.6663 14.9853 10.419 14.565 11.0807 13.8774C11.2538 13.6975 14.2628 10.9606 14.3211 10.7123C14.3283 10.6813 14.3353 10.5653 14.2663 10.5044C14.1974 10.4436 14.0961 10.4642 14.0229 10.4807C13.9191 10.5043 12.2656 11.5972 9.06241 13.7594C8.59312 14.0817 8.16802 14.2387 7.78712 14.2305C7.36722 14.2214 6.55952 13.9931 5.95905 13.7979C5.22258 13.5585 4.63724 13.4319 4.68821 13.0253C4.71477 12.8135 5.0064 12.597 5.5631 12.3757C8.99139 10.8821 11.2774 9.89732 12.4213 9.42148C15.6871 8.06306 16.3657 7.8271 16.8081 7.81923C16.9054 7.81761 17.1229 7.8417 17.2638 7.95603C17.3575 8.03747 17.4172 8.15112 17.4312 8.2745C17.455 8.42769 17.4617 8.58307 17.4509 8.73774Z" fill="white"/>
</svg>
